<?xml version="1.0" encoding="UTF-8"?>
<svg enable-background="new 0 0 149.589 149.589" version="1.1" viewBox="0 0 149.59 149.59" xml:space="preserve" xmlns="http://www.w3.org/2000/svg">

	
		<g fill="#676C70">
			<path d="m120.51 109.56s16.013 11.026 15.423 38.957c0 0-16.663-30.418-50.752-24.37 0 1e-3 7.321-19.924 35.329-14.587z"/>
			<path d="m29.077 109.56s-16.014 11.026-15.423 38.957c0 0 16.663-30.418 50.752-24.37 0 1e-3 -7.322-19.924-35.329-14.587z"/>
		</g>
		<g fill="#62686B">
			<path d="m127.37 98.549s18.417 11.026 17.738 38.958c0 0-19.165-30.419-58.37-24.37 0 0 8.421-19.925 40.632-14.588z"/>
			<path d="m22.215 98.549s-18.418 11.026-17.738 38.958c0 0 19.164-30.419 58.37-24.37 0 0-8.421-19.925-40.632-14.588z"/>
		</g>
		<path d="m133.64 86.394c9.877 2.546 14.291 9.761 14.291 9.761-1.472-26.313-22.907-37.772-22.907-37.772l-12.819-43.502c-7.985 5.729-28.58 14.218-37.407 14.218-8.826 0-29.421-8.488-37.407-14.218l-12.819 43.502s-21.436 11.459-22.907 37.772c0 0 4.413-7.215 14.29-9.761 0 0-18.913 10.822-15.551 29.921 9.036-11.459 34.675-18.674 46.864-12.732 12.188 5.942 10.928 16.977 12.398 25.677 0.836 4.945 1.843 10.333 5.167 13.029 2.524 2.048 7.061 2.037 9.964 2.037s7.44 0.011 9.965-2.037c3.324-2.697 4.33-8.084 5.166-13.029 1.472-8.7 0.211-19.735 12.399-25.677 12.189-5.942 37.827 1.274 46.864 12.732 3.363-19.098-15.551-29.921-15.551-29.921z" fill="#676C70"/>
		
			
				
					
						<path d="m31.852 1.163c1.793-0.913 9.218 5.296 14.459 13.263 4.404 6.695 7.4 19.388 6.926 24.99-0.734 8.655-16.366 21.412-27.001 23.373-6.511-17.648-1.561-57.974 5.616-61.626z" fill="#B8B8B8"/>
					
				
				
					
						<path d="m33.596 9.559c1.304-0.664 6.703 3.851 10.514 9.643 3.202 4.869 5.381 14.098 5.035 18.171-0.533 6.293-11.899 15.569-19.633 16.995-4.734-12.832-1.134-42.153 4.084-44.809z" fill="#787D82"/>
					
				
			
			
				
					
						<path d="m117.74 1.163c-1.794-0.913-9.218 5.296-14.459 13.263-4.405 6.695-7.401 19.388-6.926 24.99 0.733 8.655 16.366 21.412 27.001 23.373 6.511-17.648 1.561-57.974-5.616-61.626z" fill="#B8B8B8"/>
					
				
				
					
						<path d="m115.99 9.559c-1.305-0.664-6.703 3.851-10.514 9.643-3.203 4.869-5.382 14.098-5.036 18.171 0.534 6.293 11.9 15.569 19.633 16.995 4.735-12.832 1.135-42.153-4.083-44.809z" fill="#787D82"/>
					
				
			
		
		<path d="m101.04 89.155v9.899h-52.498v-9.899c-8.198-4.568-22.081-1.143-22.081 4.949s18.36 15.933 28.688 39.977c5.143 11.974 16.593 12.575 19.509 12.601v1e-3h0.134 0.135v-1e-3c2.915-0.026 14.364-0.627 19.508-12.601 10.328-24.044 28.688-33.885 28.688-39.977-1e-3 -6.092-13.884-9.517-22.083-4.949z" fill="#B8B8B8"/>
		<path d="m74.794 133.98-10.321 8.133s1.673 5.305 10.321 5.305 10.322-5.305 10.322-5.305l-10.322-8.133z" fill="#525759"/>
		<path d="m47.265 97.449c12.188 6.836 10.928 19.532 12.398 29.542 0.836 5.69 1.843 11.888 5.167 14.991 2.524 2.356 7.061 2.344 9.964 2.344s7.44 0.012 9.965-2.344c3.324-3.102 4.33-9.301 5.166-14.991 1.472-10.01 0.211-22.706 12.399-29.542 12.189-6.835-67.249-6.835-55.059 0z" fill="#676C70"/>
		<g fill="#838C8F">
			<path d="m111.19 104.48s1.801-20.464-4.954-28.423c-6.756-7.958-16.889-3.638-17.79 2.502-0.9 6.139 0.528 18.723 4.954 21.146 4.425 2.424 17.79 4.775 17.79 4.775z"/>
			<path d="m38.403 104.48s-1.802-20.464 4.954-28.423c6.756-7.958 16.889-3.638 17.789 2.502 0.901 6.139-0.528 18.723-4.954 21.146-4.425 2.424-17.789 4.775-17.789 4.775z"/>
		</g>
		
			
				<path d="m86.742 89.85s11.64-2.014 17.469-10.345c0 0-5.561-6.11-12.49-0.959-4.652 3.459-4.979 11.304-4.979 11.304z" fill="#263138"/>
				
					<ellipse cx="95.058" cy="81.626" rx="3.423" ry="3.456" fill="#08AFC9"/>
					<ellipse cx="94.192" cy="81.102" rx="1.288" ry="1.3" fill="#fff"/>
				
			
			
				<path d="m62.847 89.85s-11.64-2.014-17.469-10.345c0 0 5.56-6.11 12.489-0.959 4.653 3.459 4.98 11.304 4.98 11.304z" fill="#263138"/>
				
					<ellipse cx="54.531" cy="81.626" rx="3.423" ry="3.456" fill="#08AFC9"/>
					<ellipse cx="53.665" cy="81.102" rx="1.288" ry="1.3" fill="#fff"/>
				
			
		
		<path d="m74.794 131.87c-4.451 0-7.928 0.957-9.622 3.143 0 0 5.148 7.764 9.622 7.764s9.623-7.764 9.623-7.764c-1.694-2.186-5.172-3.143-9.623-3.143z" fill="#263138"/>
		<path d="m74.794 133.51c4.019 0 7.358 0.479 9.603 1.536 0.013-0.019 0.021-0.031 0.021-0.031-1.694-2.186-5.172-3.143-9.623-3.143s-7.928 0.957-9.622 3.143c0 0 8e-3 0.012 0.021 0.031 2.242-1.057 5.582-1.536 9.6-1.536z" fill="#3C454A" opacity=".8"/>
	
	<path d="m74.794 29.099c-5.646 0-16.102-3.473-24.997-7.475-1.004-2.697-2.182-5.213-3.486-7.198-5.242-7.967-12.666-14.175-14.459-13.263-6.547 3.331-11.236 37.172-7.067 56.486l-0.217 0.734s-21.435 11.459-22.906 37.772c0 0 4.413-7.215 14.29-9.761 0 0-18.913 10.822-15.551 29.921 2.995-3.798 7.819-7.125 13.368-9.666-4.742 6.196-9.648 16.194-9.292 30.858 0 0 4.658-7.376 14.058-14.142-2.851 6.085-5.108 14.348-4.88 25.149 0 0 11.885-21.692 36.111-24.796 1.926 3.128 3.756 6.567 5.386 10.361 2.922 6.802 7.878 9.932 12.148 11.372 1.566 1.059 3.932 1.962 7.494 1.962v-118.31z" fill="#fff" opacity=".12"/>

</svg>
